<mxfile host="app.diagrams.net" modified="2023-04-09T16:00:17.775Z" agent="Mozilla/5.0 (Windows NT 10.0; Win64; x64; rv:109.0) Gecko/20100101 Firefox/111.0" etag="S3TTsI5uyk-82QVo-nKK" version="21.1.4" type="github">
  <diagram id="L71-HYiMx5dE4_1I3F0T" name="Sivu-1">
    <mxGraphModel dx="1961" dy="603" grid="1" gridSize="10" guides="1" tooltips="1" connect="1" arrows="1" fold="1" page="1" pageScale="1" pageWidth="827" pageHeight="1169" math="1" shadow="0">
      <root>
        <mxCell id="0" />
        <mxCell id="1" parent="0" />
        <mxCell id="mySPSd7laB0A6SMgmcMS-1" value="" style="group" parent="1" vertex="1" connectable="0">
          <mxGeometry x="-822" width="1142" height="419" as="geometry" />
        </mxCell>
        <mxCell id="izF1CWLwOtwObPyW_wJa-1" value="" style="group" parent="mySPSd7laB0A6SMgmcMS-1" vertex="1" connectable="0">
          <mxGeometry y="99" width="1142" height="320" as="geometry" />
        </mxCell>
        <mxCell id="XnAn_cJSLQp4wYXauc3o-93" value="" style="group" parent="izF1CWLwOtwObPyW_wJa-1" vertex="1" connectable="0">
          <mxGeometry x="22" y="-19" width="560" height="320" as="geometry" />
        </mxCell>
        <mxCell id="unRAUoUYdDuh-6SN-mz_-5" value="&lt;font style=&quot;font-size: 16px;&quot;&gt;$$x^0_1$$&lt;/font&gt;" style="square;whiteSpace=wrap;html=1;aspect=fixed;" parent="XnAn_cJSLQp4wYXauc3o-93" vertex="1">
          <mxGeometry x="5" y="5" width="70" height="70" as="geometry" />
        </mxCell>
        <mxCell id="unRAUoUYdDuh-6SN-mz_-6" value="&lt;font style=&quot;font-size: 15px;&quot;&gt;$$x^0_3$$&lt;/font&gt;" style="square;whiteSpace=wrap;html=1;aspect=fixed;" parent="XnAn_cJSLQp4wYXauc3o-93" vertex="1">
          <mxGeometry x="5" y="245" width="70" height="70" as="geometry" />
        </mxCell>
        <mxCell id="unRAUoUYdDuh-6SN-mz_-7" value="&lt;font style=&quot;font-size: 15px;&quot;&gt;$$x^0_2$$&lt;/font&gt;" style="square;whiteSpace=wrap;html=1;aspect=fixed;" parent="XnAn_cJSLQp4wYXauc3o-93" vertex="1">
          <mxGeometry x="5" y="125" width="70" height="70" as="geometry" />
        </mxCell>
        <mxCell id="unRAUoUYdDuh-6SN-mz_-21" value="" style="endArrow=classic;html=1;rounded=0;entryX=-0.002;entryY=0.539;entryDx=0;entryDy=0;exitX=1;exitY=0.5;exitDx=0;exitDy=0;entryPerimeter=0;" parent="XnAn_cJSLQp4wYXauc3o-93" source="unRAUoUYdDuh-6SN-mz_-7" target="unRAUoUYdDuh-6SN-mz_-57" edge="1">
          <mxGeometry width="50" height="50" relative="1" as="geometry">
            <mxPoint x="75" y="210" as="sourcePoint" />
            <mxPoint x="215" y="100" as="targetPoint" />
          </mxGeometry>
        </mxCell>
        <mxCell id="unRAUoUYdDuh-6SN-mz_-22" value="" style="endArrow=classic;html=1;rounded=0;exitX=1;exitY=0.5;exitDx=0;exitDy=0;entryX=0;entryY=0.5;entryDx=0;entryDy=0;" parent="XnAn_cJSLQp4wYXauc3o-93" source="unRAUoUYdDuh-6SN-mz_-5" target="unRAUoUYdDuh-6SN-mz_-57" edge="1">
          <mxGeometry width="50" height="50" relative="1" as="geometry">
            <mxPoint x="135" y="40" as="sourcePoint" />
            <mxPoint x="215" y="91.03999999999996" as="targetPoint" />
          </mxGeometry>
        </mxCell>
        <mxCell id="unRAUoUYdDuh-6SN-mz_-23" value="" style="endArrow=classic;html=1;rounded=0;exitX=1;exitY=0.5;exitDx=0;exitDy=0;entryX=0;entryY=0.6;entryDx=0;entryDy=0;entryPerimeter=0;" parent="XnAn_cJSLQp4wYXauc3o-93" source="unRAUoUYdDuh-6SN-mz_-6" target="unRAUoUYdDuh-6SN-mz_-57" edge="1">
          <mxGeometry width="50" height="50" relative="1" as="geometry">
            <mxPoint x="135" y="280" as="sourcePoint" />
            <mxPoint x="216.03999999999996" y="108" as="targetPoint" />
          </mxGeometry>
        </mxCell>
        <mxCell id="unRAUoUYdDuh-6SN-mz_-24" value="" style="endArrow=classic;html=1;rounded=0;exitX=1;exitY=0.5;exitDx=0;exitDy=0;entryX=0.005;entryY=0.395;entryDx=0;entryDy=0;entryPerimeter=0;" parent="XnAn_cJSLQp4wYXauc3o-93" source="unRAUoUYdDuh-6SN-mz_-5" target="unRAUoUYdDuh-6SN-mz_-59" edge="1">
          <mxGeometry width="50" height="50" relative="1" as="geometry">
            <mxPoint x="145" as="sourcePoint" />
            <mxPoint x="225" as="targetPoint" />
          </mxGeometry>
        </mxCell>
        <mxCell id="unRAUoUYdDuh-6SN-mz_-45" value="&lt;div style=&quot;font-size: 15px;&quot;&gt;&lt;sub style=&quot;font-size: 15px;&quot;&gt;$$w^1_{31}$$&lt;/sub&gt;&lt;/div&gt;" style="text;html=1;strokeColor=none;fillColor=none;align=center;verticalAlign=middle;whiteSpace=wrap;rounded=0;fontSize=15;rotation=-57;" parent="XnAn_cJSLQp4wYXauc3o-93" vertex="1">
          <mxGeometry x="60" y="220" width="60" height="30" as="geometry" />
        </mxCell>
        <mxCell id="unRAUoUYdDuh-6SN-mz_-46" value="&lt;div style=&quot;font-size: 15px;&quot;&gt;&lt;sub style=&quot;font-size: 15px;&quot;&gt;$$w^1_{11}$$&lt;/sub&gt;&lt;/div&gt;" style="text;html=1;strokeColor=none;fillColor=none;align=center;verticalAlign=middle;whiteSpace=wrap;rounded=0;fontSize=15;rotation=0;" parent="XnAn_cJSLQp4wYXauc3o-93" vertex="1">
          <mxGeometry x="120" y="11" width="60" height="30" as="geometry" />
        </mxCell>
        <mxCell id="unRAUoUYdDuh-6SN-mz_-47" value="&lt;div style=&quot;font-size: 15px;&quot;&gt;&lt;sub style=&quot;font-size: 15px;&quot;&gt;$$w^1_{21}$$&lt;/sub&gt;&lt;/div&gt;" style="text;html=1;strokeColor=none;fillColor=none;align=center;verticalAlign=middle;whiteSpace=wrap;rounded=0;fontSize=15;rotation=-40;" parent="XnAn_cJSLQp4wYXauc3o-93" vertex="1">
          <mxGeometry x="70" y="110" width="60" height="30" as="geometry" />
        </mxCell>
        <mxCell id="unRAUoUYdDuh-6SN-mz_-57" value="" style="ellipse;whiteSpace=wrap;html=1;aspect=fixed;" parent="XnAn_cJSLQp4wYXauc3o-93" vertex="1">
          <mxGeometry x="225" width="80" height="80" as="geometry" />
        </mxCell>
        <mxCell id="unRAUoUYdDuh-6SN-mz_-58" value="" style="endArrow=none;html=1;rounded=0;fontSize=15;exitX=0;exitY=1;exitDx=0;exitDy=0;entryX=1;entryY=0;entryDx=0;entryDy=0;" parent="XnAn_cJSLQp4wYXauc3o-93" source="unRAUoUYdDuh-6SN-mz_-57" target="unRAUoUYdDuh-6SN-mz_-57" edge="1">
          <mxGeometry width="50" height="50" relative="1" as="geometry">
            <mxPoint x="240" y="150" as="sourcePoint" />
            <mxPoint x="290" y="60" as="targetPoint" />
          </mxGeometry>
        </mxCell>
        <mxCell id="unRAUoUYdDuh-6SN-mz_-59" value="" style="ellipse;whiteSpace=wrap;html=1;aspect=fixed;" parent="XnAn_cJSLQp4wYXauc3o-93" vertex="1">
          <mxGeometry x="225" y="240" width="80" height="80" as="geometry" />
        </mxCell>
        <mxCell id="unRAUoUYdDuh-6SN-mz_-60" value="" style="endArrow=none;html=1;rounded=0;fontSize=15;exitX=0;exitY=1;exitDx=0;exitDy=0;entryX=1;entryY=0;entryDx=0;entryDy=0;" parent="XnAn_cJSLQp4wYXauc3o-93" source="unRAUoUYdDuh-6SN-mz_-59" target="unRAUoUYdDuh-6SN-mz_-59" edge="1">
          <mxGeometry width="50" height="50" relative="1" as="geometry">
            <mxPoint x="340" y="330" as="sourcePoint" />
            <mxPoint x="390" y="240" as="targetPoint" />
          </mxGeometry>
        </mxCell>
        <mxCell id="unRAUoUYdDuh-6SN-mz_-65" value="" style="endArrow=classic;html=1;rounded=0;fontSize=15;entryX=-0.002;entryY=0.449;entryDx=0;entryDy=0;exitX=1;exitY=0.5;exitDx=0;exitDy=0;entryPerimeter=0;" parent="XnAn_cJSLQp4wYXauc3o-93" source="unRAUoUYdDuh-6SN-mz_-7" target="unRAUoUYdDuh-6SN-mz_-59" edge="1">
          <mxGeometry width="50" height="50" relative="1" as="geometry">
            <mxPoint x="25" y="190" as="sourcePoint" />
            <mxPoint x="205" y="240" as="targetPoint" />
          </mxGeometry>
        </mxCell>
        <mxCell id="unRAUoUYdDuh-6SN-mz_-67" value="" style="endArrow=classic;html=1;rounded=0;fontSize=15;entryX=0;entryY=0.5;entryDx=0;entryDy=0;exitX=1;exitY=0.5;exitDx=0;exitDy=0;" parent="XnAn_cJSLQp4wYXauc3o-93" source="unRAUoUYdDuh-6SN-mz_-6" target="unRAUoUYdDuh-6SN-mz_-59" edge="1">
          <mxGeometry width="50" height="50" relative="1" as="geometry">
            <mxPoint x="25" y="190" as="sourcePoint" />
            <mxPoint x="75" y="140" as="targetPoint" />
          </mxGeometry>
        </mxCell>
        <mxCell id="unRAUoUYdDuh-6SN-mz_-68" value="&lt;div style=&quot;font-size: 15px;&quot;&gt;&lt;sub style=&quot;font-size: 15px;&quot;&gt;$$w^1_{33}$$&lt;/sub&gt;&lt;/div&gt;" style="text;html=1;strokeColor=none;fillColor=none;align=center;verticalAlign=middle;whiteSpace=wrap;rounded=0;fontSize=15;rotation=0;" parent="XnAn_cJSLQp4wYXauc3o-93" vertex="1">
          <mxGeometry x="120" y="250" width="60" height="30" as="geometry" />
        </mxCell>
        <mxCell id="unRAUoUYdDuh-6SN-mz_-69" value="&lt;div style=&quot;font-size: 15px;&quot;&gt;&lt;sub style=&quot;font-size: 15px;&quot;&gt;$$w^1_{12}$$&lt;/sub&gt;&lt;/div&gt;" style="text;html=1;strokeColor=none;fillColor=none;align=center;verticalAlign=middle;whiteSpace=wrap;rounded=0;fontSize=15;rotation=39;" parent="XnAn_cJSLQp4wYXauc3o-93" vertex="1">
          <mxGeometry x="117" y="61" width="60" height="30" as="geometry" />
        </mxCell>
        <mxCell id="unRAUoUYdDuh-6SN-mz_-70" value="&lt;div style=&quot;font-size: 15px;&quot;&gt;&lt;sub style=&quot;font-size: 15px;&quot;&gt;$$w^2_{22}$$&lt;/sub&gt;&lt;/div&gt;" style="text;html=1;strokeColor=none;fillColor=none;align=center;verticalAlign=middle;whiteSpace=wrap;rounded=0;fontSize=15;rotation=0;" parent="XnAn_cJSLQp4wYXauc3o-93" vertex="1">
          <mxGeometry x="157" y="130" width="60" height="30" as="geometry" />
        </mxCell>
        <mxCell id="unRAUoUYdDuh-6SN-mz_-72" value="" style="ellipse;whiteSpace=wrap;html=1;aspect=fixed;" parent="XnAn_cJSLQp4wYXauc3o-93" vertex="1">
          <mxGeometry x="410" y="120" width="80" height="80" as="geometry" />
        </mxCell>
        <mxCell id="unRAUoUYdDuh-6SN-mz_-73" value="" style="endArrow=none;html=1;rounded=0;fontSize=15;exitX=0;exitY=1;exitDx=0;exitDy=0;entryX=1;entryY=0;entryDx=0;entryDy=0;" parent="XnAn_cJSLQp4wYXauc3o-93" source="unRAUoUYdDuh-6SN-mz_-72" target="unRAUoUYdDuh-6SN-mz_-72" edge="1">
          <mxGeometry width="50" height="50" relative="1" as="geometry">
            <mxPoint x="525" y="270" as="sourcePoint" />
            <mxPoint x="575" y="180" as="targetPoint" />
          </mxGeometry>
        </mxCell>
        <mxCell id="unRAUoUYdDuh-6SN-mz_-74" value="" style="endArrow=classic;html=1;rounded=0;fontSize=15;entryX=0;entryY=0.5;entryDx=0;entryDy=0;exitX=1;exitY=0.5;exitDx=0;exitDy=0;" parent="XnAn_cJSLQp4wYXauc3o-93" source="unRAUoUYdDuh-6SN-mz_-57" target="unRAUoUYdDuh-6SN-mz_-72" edge="1">
          <mxGeometry width="50" height="50" relative="1" as="geometry">
            <mxPoint x="258" y="190" as="sourcePoint" />
            <mxPoint x="308" y="140" as="targetPoint" />
          </mxGeometry>
        </mxCell>
        <mxCell id="unRAUoUYdDuh-6SN-mz_-75" value="" style="endArrow=classic;html=1;rounded=0;fontSize=15;entryX=0;entryY=0.5;entryDx=0;entryDy=0;exitX=1;exitY=0.5;exitDx=0;exitDy=0;" parent="XnAn_cJSLQp4wYXauc3o-93" source="unRAUoUYdDuh-6SN-mz_-59" target="unRAUoUYdDuh-6SN-mz_-72" edge="1">
          <mxGeometry width="50" height="50" relative="1" as="geometry">
            <mxPoint x="258" y="190" as="sourcePoint" />
            <mxPoint x="308" y="140" as="targetPoint" />
          </mxGeometry>
        </mxCell>
        <mxCell id="unRAUoUYdDuh-6SN-mz_-76" value="&lt;div style=&quot;font-size: 15px;&quot;&gt;&lt;sub style=&quot;font-size: 15px;&quot;&gt;$$w^2_{11}$$&lt;/sub&gt;&lt;/div&gt;" style="text;html=1;strokeColor=none;fillColor=none;align=center;verticalAlign=middle;whiteSpace=wrap;rounded=0;fontSize=15;rotation=50;" parent="XnAn_cJSLQp4wYXauc3o-93" vertex="1">
          <mxGeometry x="338" y="70" width="60" height="30" as="geometry" />
        </mxCell>
        <mxCell id="unRAUoUYdDuh-6SN-mz_-77" value="&lt;div style=&quot;font-size: 15px;&quot;&gt;&lt;sub style=&quot;font-size: 15px;&quot;&gt;$$w^2_{21}$$&lt;/sub&gt;&lt;/div&gt;" style="text;html=1;strokeColor=none;fillColor=none;align=center;verticalAlign=middle;whiteSpace=wrap;rounded=0;fontSize=15;rotation=0;" parent="XnAn_cJSLQp4wYXauc3o-93" vertex="1">
          <mxGeometry x="320" y="130" width="60" height="30" as="geometry" />
        </mxCell>
        <mxCell id="XnAn_cJSLQp4wYXauc3o-2" value="" style="ellipse;whiteSpace=wrap;html=1;aspect=fixed;" parent="XnAn_cJSLQp4wYXauc3o-93" vertex="1">
          <mxGeometry x="225" y="120" width="80" height="80" as="geometry" />
        </mxCell>
        <mxCell id="XnAn_cJSLQp4wYXauc3o-3" value="" style="endArrow=none;html=1;rounded=0;fontSize=15;exitX=0;exitY=1;exitDx=0;exitDy=0;entryX=1;entryY=0;entryDx=0;entryDy=0;" parent="XnAn_cJSLQp4wYXauc3o-93" source="XnAn_cJSLQp4wYXauc3o-2" target="XnAn_cJSLQp4wYXauc3o-2" edge="1">
          <mxGeometry width="50" height="50" relative="1" as="geometry">
            <mxPoint x="240" y="270" as="sourcePoint" />
            <mxPoint x="290" y="180" as="targetPoint" />
          </mxGeometry>
        </mxCell>
        <mxCell id="XnAn_cJSLQp4wYXauc3o-4" value="" style="endArrow=classic;html=1;rounded=0;exitX=1;exitY=0.5;exitDx=0;exitDy=0;entryX=-0.002;entryY=0.453;entryDx=0;entryDy=0;entryPerimeter=0;" parent="XnAn_cJSLQp4wYXauc3o-93" source="unRAUoUYdDuh-6SN-mz_-5" target="XnAn_cJSLQp4wYXauc3o-2" edge="1">
          <mxGeometry width="50" height="50" relative="1" as="geometry">
            <mxPoint x="87" y="41" as="sourcePoint" />
            <mxPoint x="217" y="131" as="targetPoint" />
          </mxGeometry>
        </mxCell>
        <mxCell id="XnAn_cJSLQp4wYXauc3o-6" value="" style="endArrow=classic;html=1;rounded=0;exitX=1;exitY=0.5;exitDx=0;exitDy=0;entryX=0;entryY=0.5;entryDx=0;entryDy=0;" parent="XnAn_cJSLQp4wYXauc3o-93" source="unRAUoUYdDuh-6SN-mz_-7" target="XnAn_cJSLQp4wYXauc3o-2" edge="1">
          <mxGeometry width="50" height="50" relative="1" as="geometry">
            <mxPoint x="137" y="181" as="sourcePoint" />
            <mxPoint x="187" y="131" as="targetPoint" />
          </mxGeometry>
        </mxCell>
        <mxCell id="XnAn_cJSLQp4wYXauc3o-7" value="" style="endArrow=classic;html=1;rounded=0;exitX=1;exitY=0.5;exitDx=0;exitDy=0;entryX=-0.002;entryY=0.545;entryDx=0;entryDy=0;entryPerimeter=0;" parent="XnAn_cJSLQp4wYXauc3o-93" source="unRAUoUYdDuh-6SN-mz_-6" target="XnAn_cJSLQp4wYXauc3o-2" edge="1">
          <mxGeometry width="50" height="50" relative="1" as="geometry">
            <mxPoint x="137" y="281" as="sourcePoint" />
            <mxPoint x="187" y="231" as="targetPoint" />
          </mxGeometry>
        </mxCell>
        <mxCell id="XnAn_cJSLQp4wYXauc3o-9" value="&lt;div style=&quot;font-size: 15px;&quot;&gt;&lt;sub style=&quot;font-size: 15px;&quot;&gt;$$w^1_{13}$$&lt;/sub&gt;&lt;/div&gt;" style="text;html=1;strokeColor=none;fillColor=none;align=center;verticalAlign=middle;whiteSpace=wrap;rounded=0;fontSize=15;rotation=57;" parent="XnAn_cJSLQp4wYXauc3o-93" vertex="1">
          <mxGeometry x="180" y="200" width="60" height="30" as="geometry" />
        </mxCell>
        <mxCell id="XnAn_cJSLQp4wYXauc3o-48" value="&lt;div style=&quot;font-size: 15px;&quot;&gt;&lt;sub style=&quot;font-size: 15px;&quot;&gt;$$w^1_{23}$$&lt;/sub&gt;&lt;/div&gt;" style="text;html=1;strokeColor=none;fillColor=none;align=center;verticalAlign=middle;whiteSpace=wrap;rounded=0;fontSize=15;rotation=39;" parent="XnAn_cJSLQp4wYXauc3o-93" vertex="1">
          <mxGeometry x="70.31" y="181.11" width="60" height="29" as="geometry" />
        </mxCell>
        <mxCell id="XnAn_cJSLQp4wYXauc3o-49" value="&lt;div style=&quot;font-size: 15px;&quot;&gt;&lt;sub style=&quot;font-size: 15px;&quot;&gt;$$w^1_{32}$$&lt;/sub&gt;&lt;/div&gt;" style="text;html=1;strokeColor=none;fillColor=none;align=center;verticalAlign=middle;whiteSpace=wrap;rounded=0;fontSize=15;rotation=-37;" parent="XnAn_cJSLQp4wYXauc3o-93" vertex="1">
          <mxGeometry x="130.31" y="181.11" width="60" height="30" as="geometry" />
        </mxCell>
        <mxCell id="XnAn_cJSLQp4wYXauc3o-50" value="" style="endArrow=classic;html=1;rounded=0;entryX=0;entryY=0.5;entryDx=0;entryDy=0;exitX=1;exitY=0.5;exitDx=0;exitDy=0;" parent="XnAn_cJSLQp4wYXauc3o-93" source="XnAn_cJSLQp4wYXauc3o-2" target="unRAUoUYdDuh-6SN-mz_-72" edge="1">
          <mxGeometry width="50" height="50" relative="1" as="geometry">
            <mxPoint x="260" y="191" as="sourcePoint" />
            <mxPoint x="310" y="141" as="targetPoint" />
          </mxGeometry>
        </mxCell>
        <mxCell id="XnAn_cJSLQp4wYXauc3o-91" value="&lt;div style=&quot;font-size: 15px;&quot;&gt;&lt;sub style=&quot;font-size: 15px;&quot;&gt;$$w^2_{21}$$&lt;/sub&gt;&lt;/div&gt;" style="text;html=1;strokeColor=none;fillColor=none;align=center;verticalAlign=middle;whiteSpace=wrap;rounded=0;fontSize=15;rotation=-46;" parent="XnAn_cJSLQp4wYXauc3o-93" vertex="1">
          <mxGeometry x="310" y="200" width="60" height="30" as="geometry" />
        </mxCell>
        <mxCell id="izF1CWLwOtwObPyW_wJa-63" value="&lt;font style=&quot;font-size: 21px;&quot;&gt;$$=f(x)$$&lt;/font&gt;" style="text;html=1;strokeColor=none;fillColor=none;align=center;verticalAlign=middle;whiteSpace=wrap;rounded=0;fontSize=24;" parent="XnAn_cJSLQp4wYXauc3o-93" vertex="1">
          <mxGeometry x="420" y="190" width="60" height="70" as="geometry" />
        </mxCell>
        <mxCell id="YKr_ZS6G_kyBHtNpPrFh-7" value="&lt;font style=&quot;font-size: 18px;&quot;&gt;$$\Sigma$$&lt;/font&gt;" style="text;html=1;strokeColor=none;fillColor=none;align=center;verticalAlign=middle;whiteSpace=wrap;rounded=0;" vertex="1" parent="XnAn_cJSLQp4wYXauc3o-93">
          <mxGeometry x="225" y="11" width="60" height="30" as="geometry" />
        </mxCell>
        <mxCell id="YKr_ZS6G_kyBHtNpPrFh-8" value="&lt;font style=&quot;font-size: 18px;&quot;&gt;$$\Sigma$$&lt;/font&gt;" style="text;html=1;strokeColor=none;fillColor=none;align=center;verticalAlign=middle;whiteSpace=wrap;rounded=0;" vertex="1" parent="XnAn_cJSLQp4wYXauc3o-93">
          <mxGeometry x="225" y="130" width="60" height="30" as="geometry" />
        </mxCell>
        <mxCell id="YKr_ZS6G_kyBHtNpPrFh-9" value="&lt;font style=&quot;font-size: 18px;&quot;&gt;$$\Sigma$$&lt;/font&gt;" style="text;html=1;strokeColor=none;fillColor=none;align=center;verticalAlign=middle;whiteSpace=wrap;rounded=0;" vertex="1" parent="XnAn_cJSLQp4wYXauc3o-93">
          <mxGeometry x="225" y="250" width="60" height="30" as="geometry" />
        </mxCell>
        <mxCell id="YKr_ZS6G_kyBHtNpPrFh-11" value="&lt;font style=&quot;font-size: 15px;&quot;&gt;$$x^1_1$$&lt;/font&gt;" style="text;html=1;strokeColor=none;fillColor=none;align=center;verticalAlign=middle;whiteSpace=wrap;rounded=0;" vertex="1" parent="XnAn_cJSLQp4wYXauc3o-93">
          <mxGeometry x="245" y="40" width="60" height="30" as="geometry" />
        </mxCell>
        <mxCell id="YKr_ZS6G_kyBHtNpPrFh-12" value="&lt;font style=&quot;font-size: 15px;&quot;&gt;$$x^1_2$$&lt;/font&gt;" style="text;html=1;strokeColor=none;fillColor=none;align=center;verticalAlign=middle;whiteSpace=wrap;rounded=0;" vertex="1" parent="XnAn_cJSLQp4wYXauc3o-93">
          <mxGeometry x="245" y="160" width="60" height="30" as="geometry" />
        </mxCell>
        <mxCell id="YKr_ZS6G_kyBHtNpPrFh-13" value="&lt;font style=&quot;font-size: 15px;&quot;&gt;$$x^1_2$$&lt;/font&gt;" style="text;html=1;strokeColor=none;fillColor=none;align=center;verticalAlign=middle;whiteSpace=wrap;rounded=0;" vertex="1" parent="XnAn_cJSLQp4wYXauc3o-93">
          <mxGeometry x="245" y="280" width="60" height="30" as="geometry" />
        </mxCell>
        <mxCell id="YKr_ZS6G_kyBHtNpPrFh-14" value="&lt;font style=&quot;font-size: 15px;&quot;&gt;$$x^2_1$$&lt;/font&gt;" style="text;html=1;strokeColor=none;fillColor=none;align=center;verticalAlign=middle;whiteSpace=wrap;rounded=0;" vertex="1" parent="XnAn_cJSLQp4wYXauc3o-93">
          <mxGeometry x="430" y="160" width="60" height="30" as="geometry" />
        </mxCell>
        <mxCell id="YKr_ZS6G_kyBHtNpPrFh-16" value="&lt;font style=&quot;font-size: 18px;&quot;&gt;$$\Sigma$$&lt;/font&gt;" style="text;html=1;strokeColor=none;fillColor=none;align=center;verticalAlign=middle;whiteSpace=wrap;rounded=0;" vertex="1" parent="XnAn_cJSLQp4wYXauc3o-93">
          <mxGeometry x="410" y="130" width="60" height="30" as="geometry" />
        </mxCell>
        <mxCell id="XnAn_cJSLQp4wYXauc3o-94" value="" style="group" parent="izF1CWLwOtwObPyW_wJa-1" vertex="1" connectable="0">
          <mxGeometry x="582" y="-19" width="560" height="320" as="geometry" />
        </mxCell>
        <mxCell id="XnAn_cJSLQp4wYXauc3o-95" value="" style="square;whiteSpace=wrap;html=1;aspect=fixed;" parent="XnAn_cJSLQp4wYXauc3o-94" vertex="1">
          <mxGeometry x="5" y="5" width="70" height="70" as="geometry" />
        </mxCell>
        <mxCell id="XnAn_cJSLQp4wYXauc3o-96" value="" style="square;whiteSpace=wrap;html=1;aspect=fixed;" parent="XnAn_cJSLQp4wYXauc3o-94" vertex="1">
          <mxGeometry x="5.31" y="245" width="70" height="70" as="geometry" />
        </mxCell>
        <mxCell id="XnAn_cJSLQp4wYXauc3o-97" value="" style="square;whiteSpace=wrap;html=1;aspect=fixed;" parent="XnAn_cJSLQp4wYXauc3o-94" vertex="1">
          <mxGeometry x="5.31" y="125" width="70" height="70" as="geometry" />
        </mxCell>
        <mxCell id="XnAn_cJSLQp4wYXauc3o-98" value="" style="endArrow=classic;html=1;rounded=0;entryX=0.995;entryY=0.454;entryDx=0;entryDy=0;exitX=0;exitY=0.5;exitDx=0;exitDy=0;entryPerimeter=0;" parent="XnAn_cJSLQp4wYXauc3o-94" source="XnAn_cJSLQp4wYXauc3o-108" target="XnAn_cJSLQp4wYXauc3o-97" edge="1">
          <mxGeometry width="50" height="50" relative="1" as="geometry">
            <mxPoint x="215" y="100" as="sourcePoint" />
            <mxPoint x="75" y="210" as="targetPoint" />
          </mxGeometry>
        </mxCell>
        <mxCell id="XnAn_cJSLQp4wYXauc3o-99" value="" style="endArrow=classic;html=1;rounded=0;exitX=0;exitY=0.5;exitDx=0;exitDy=0;entryX=1;entryY=0.5;entryDx=0;entryDy=0;" parent="XnAn_cJSLQp4wYXauc3o-94" source="XnAn_cJSLQp4wYXauc3o-108" target="XnAn_cJSLQp4wYXauc3o-95" edge="1">
          <mxGeometry width="50" height="50" relative="1" as="geometry">
            <mxPoint x="215" y="91.03999999999996" as="sourcePoint" />
            <mxPoint x="135" y="40" as="targetPoint" />
          </mxGeometry>
        </mxCell>
        <mxCell id="XnAn_cJSLQp4wYXauc3o-100" value="" style="endArrow=classic;html=1;rounded=0;exitX=0;exitY=0.5;exitDx=0;exitDy=0;entryX=0.997;entryY=0.397;entryDx=0;entryDy=0;entryPerimeter=0;" parent="XnAn_cJSLQp4wYXauc3o-94" source="XnAn_cJSLQp4wYXauc3o-108" target="XnAn_cJSLQp4wYXauc3o-96" edge="1">
          <mxGeometry width="50" height="50" relative="1" as="geometry">
            <mxPoint x="216.03999999999996" y="108" as="sourcePoint" />
            <mxPoint x="135" y="280" as="targetPoint" />
          </mxGeometry>
        </mxCell>
        <mxCell id="XnAn_cJSLQp4wYXauc3o-101" value="" style="endArrow=classic;html=1;rounded=0;exitX=0;exitY=0.5;exitDx=0;exitDy=0;entryX=1.002;entryY=0.606;entryDx=0;entryDy=0;entryPerimeter=0;" parent="XnAn_cJSLQp4wYXauc3o-94" source="XnAn_cJSLQp4wYXauc3o-110" target="XnAn_cJSLQp4wYXauc3o-95" edge="1">
          <mxGeometry width="50" height="50" relative="1" as="geometry">
            <mxPoint x="225" as="sourcePoint" />
            <mxPoint x="145" as="targetPoint" />
          </mxGeometry>
        </mxCell>
        <mxCell id="XnAn_cJSLQp4wYXauc3o-102" value="&lt;div style=&quot;font-size: 15px;&quot;&gt;&lt;sub style=&quot;font-size: 15px;&quot;&gt;$$A^{1}_{3\leftarrow1}$$&lt;/sub&gt;&lt;/div&gt;" style="text;html=1;strokeColor=none;fillColor=none;align=center;verticalAlign=middle;whiteSpace=wrap;rounded=0;fontSize=15;rotation=-60;" parent="XnAn_cJSLQp4wYXauc3o-94" vertex="1">
          <mxGeometry x="55.67" y="212.5" width="60" height="40" as="geometry" />
        </mxCell>
        <mxCell id="XnAn_cJSLQp4wYXauc3o-103" value="&lt;div style=&quot;font-size: 15px;&quot;&gt;&lt;sub style=&quot;font-size: 15px;&quot;&gt;$$A^{1}_{1\leftarrow1}$$&lt;/sub&gt;&lt;/div&gt;" style="text;html=1;strokeColor=none;fillColor=none;align=center;verticalAlign=middle;whiteSpace=wrap;rounded=0;fontSize=15;rotation=0;" parent="XnAn_cJSLQp4wYXauc3o-94" vertex="1">
          <mxGeometry x="120" y="11" width="60" height="30" as="geometry" />
        </mxCell>
        <mxCell id="XnAn_cJSLQp4wYXauc3o-104" value="&lt;div style=&quot;font-size: 15px;&quot;&gt;&lt;sub style=&quot;font-size: 15px;&quot;&gt;$$A^{1}_{2\leftarrow1}$$&lt;/sub&gt;&lt;/div&gt;" style="text;html=1;strokeColor=none;fillColor=none;align=center;verticalAlign=middle;whiteSpace=wrap;rounded=0;fontSize=15;rotation=-40;" parent="XnAn_cJSLQp4wYXauc3o-94" vertex="1">
          <mxGeometry x="66.79" y="101.17" width="60" height="40" as="geometry" />
        </mxCell>
        <mxCell id="XnAn_cJSLQp4wYXauc3o-108" value="" style="ellipse;whiteSpace=wrap;html=1;aspect=fixed;labelBackgroundColor=none;" parent="XnAn_cJSLQp4wYXauc3o-94" vertex="1">
          <mxGeometry x="225" width="80" height="80" as="geometry" />
        </mxCell>
        <mxCell id="XnAn_cJSLQp4wYXauc3o-109" value="" style="endArrow=none;html=1;rounded=0;fontSize=15;exitX=0;exitY=1;exitDx=0;exitDy=0;entryX=1;entryY=0;entryDx=0;entryDy=0;labelBackgroundColor=none;" parent="XnAn_cJSLQp4wYXauc3o-94" source="XnAn_cJSLQp4wYXauc3o-108" target="XnAn_cJSLQp4wYXauc3o-108" edge="1">
          <mxGeometry width="50" height="50" relative="1" as="geometry">
            <mxPoint x="240" y="150" as="sourcePoint" />
            <mxPoint x="290" y="60" as="targetPoint" />
          </mxGeometry>
        </mxCell>
        <mxCell id="XnAn_cJSLQp4wYXauc3o-110" value="" style="ellipse;whiteSpace=wrap;html=1;aspect=fixed;labelBackgroundColor=none;" parent="XnAn_cJSLQp4wYXauc3o-94" vertex="1">
          <mxGeometry x="225" y="240" width="80" height="80" as="geometry" />
        </mxCell>
        <mxCell id="XnAn_cJSLQp4wYXauc3o-111" value="" style="endArrow=none;html=1;rounded=0;fontSize=15;exitX=0;exitY=1;exitDx=0;exitDy=0;entryX=1;entryY=0;entryDx=0;entryDy=0;labelBackgroundColor=none;" parent="XnAn_cJSLQp4wYXauc3o-94" source="XnAn_cJSLQp4wYXauc3o-110" target="XnAn_cJSLQp4wYXauc3o-110" edge="1">
          <mxGeometry width="50" height="50" relative="1" as="geometry">
            <mxPoint x="340" y="330" as="sourcePoint" />
            <mxPoint x="390" y="240" as="targetPoint" />
          </mxGeometry>
        </mxCell>
        <mxCell id="XnAn_cJSLQp4wYXauc3o-112" value="" style="endArrow=classic;html=1;rounded=0;fontSize=15;entryX=0.999;entryY=0.549;entryDx=0;entryDy=0;exitX=0;exitY=0.5;exitDx=0;exitDy=0;entryPerimeter=0;" parent="XnAn_cJSLQp4wYXauc3o-94" source="XnAn_cJSLQp4wYXauc3o-110" target="XnAn_cJSLQp4wYXauc3o-97" edge="1">
          <mxGeometry width="50" height="50" relative="1" as="geometry">
            <mxPoint x="205" y="240" as="sourcePoint" />
            <mxPoint x="25" y="190" as="targetPoint" />
          </mxGeometry>
        </mxCell>
        <mxCell id="XnAn_cJSLQp4wYXauc3o-113" value="" style="endArrow=classic;html=1;rounded=0;fontSize=15;entryX=1;entryY=0.5;entryDx=0;entryDy=0;exitX=0;exitY=0.5;exitDx=0;exitDy=0;" parent="XnAn_cJSLQp4wYXauc3o-94" source="XnAn_cJSLQp4wYXauc3o-110" target="XnAn_cJSLQp4wYXauc3o-96" edge="1">
          <mxGeometry width="50" height="50" relative="1" as="geometry">
            <mxPoint x="75" y="140" as="sourcePoint" />
            <mxPoint x="25" y="190" as="targetPoint" />
          </mxGeometry>
        </mxCell>
        <mxCell id="XnAn_cJSLQp4wYXauc3o-114" value="&lt;div style=&quot;font-size: 15px;&quot;&gt;&lt;sub style=&quot;font-size: 15px;&quot;&gt;$$A^{1}_{3\leftarrow3}$$&lt;/sub&gt;&lt;/div&gt;" style="text;html=1;strokeColor=none;fillColor=none;align=center;verticalAlign=middle;whiteSpace=wrap;rounded=0;fontSize=15;rotation=0;" parent="XnAn_cJSLQp4wYXauc3o-94" vertex="1">
          <mxGeometry x="120" y="250" width="60" height="30" as="geometry" />
        </mxCell>
        <mxCell id="XnAn_cJSLQp4wYXauc3o-115" value="&lt;div style=&quot;font-size: 15px;&quot;&gt;&lt;sub style=&quot;font-size: 15px;&quot;&gt;$$A^{1}_{1\leftarrow2}$$&lt;/sub&gt;&lt;/div&gt;" style="text;html=1;strokeColor=none;fillColor=none;align=center;verticalAlign=middle;whiteSpace=wrap;rounded=0;fontSize=15;rotation=37;" parent="XnAn_cJSLQp4wYXauc3o-94" vertex="1">
          <mxGeometry x="110" y="55" width="60" height="30" as="geometry" />
        </mxCell>
        <mxCell id="XnAn_cJSLQp4wYXauc3o-116" value="&lt;div style=&quot;font-size: 15px;&quot;&gt;&lt;sub style=&quot;font-size: 15px;&quot;&gt;$$A^{1}_{2\leftarrow2}$$&lt;/sub&gt;&lt;/div&gt;" style="text;html=1;strokeColor=none;fillColor=none;align=center;verticalAlign=middle;whiteSpace=wrap;rounded=0;fontSize=15;rotation=0;" parent="XnAn_cJSLQp4wYXauc3o-94" vertex="1">
          <mxGeometry x="157" y="130" width="60" height="30" as="geometry" />
        </mxCell>
        <mxCell id="XnAn_cJSLQp4wYXauc3o-117" value="" style="ellipse;whiteSpace=wrap;html=1;aspect=fixed;" parent="XnAn_cJSLQp4wYXauc3o-94" vertex="1">
          <mxGeometry x="410" y="120" width="80" height="80" as="geometry" />
        </mxCell>
        <mxCell id="XnAn_cJSLQp4wYXauc3o-118" value="" style="endArrow=none;html=1;rounded=0;fontSize=15;exitX=0;exitY=1;exitDx=0;exitDy=0;entryX=1;entryY=0;entryDx=0;entryDy=0;" parent="XnAn_cJSLQp4wYXauc3o-94" source="XnAn_cJSLQp4wYXauc3o-117" target="XnAn_cJSLQp4wYXauc3o-117" edge="1">
          <mxGeometry width="50" height="50" relative="1" as="geometry">
            <mxPoint x="525" y="270" as="sourcePoint" />
            <mxPoint x="575" y="180" as="targetPoint" />
          </mxGeometry>
        </mxCell>
        <mxCell id="XnAn_cJSLQp4wYXauc3o-119" value="" style="endArrow=classic;html=1;rounded=0;fontSize=15;entryX=1;entryY=0.5;entryDx=0;entryDy=0;exitX=0;exitY=0.5;exitDx=0;exitDy=0;" parent="XnAn_cJSLQp4wYXauc3o-94" source="XnAn_cJSLQp4wYXauc3o-117" target="XnAn_cJSLQp4wYXauc3o-108" edge="1">
          <mxGeometry width="50" height="50" relative="1" as="geometry">
            <mxPoint x="308" y="140" as="sourcePoint" />
            <mxPoint x="258" y="190" as="targetPoint" />
          </mxGeometry>
        </mxCell>
        <mxCell id="XnAn_cJSLQp4wYXauc3o-120" value="" style="endArrow=classic;html=1;rounded=0;fontSize=15;entryX=1;entryY=0.5;entryDx=0;entryDy=0;exitX=0;exitY=0.5;exitDx=0;exitDy=0;" parent="XnAn_cJSLQp4wYXauc3o-94" source="XnAn_cJSLQp4wYXauc3o-117" target="XnAn_cJSLQp4wYXauc3o-110" edge="1">
          <mxGeometry width="50" height="50" relative="1" as="geometry">
            <mxPoint x="308" y="140" as="sourcePoint" />
            <mxPoint x="258" y="190" as="targetPoint" />
          </mxGeometry>
        </mxCell>
        <mxCell id="XnAn_cJSLQp4wYXauc3o-121" value="&lt;div style=&quot;font-size: 15px;&quot;&gt;&lt;sub style=&quot;font-size: 15px;&quot;&gt;$$A^{2}_{1\leftarrow1}$$&lt;/sub&gt;&lt;/div&gt;" style="text;html=1;strokeColor=none;fillColor=none;align=center;verticalAlign=middle;whiteSpace=wrap;rounded=0;fontSize=15;rotation=50;" parent="XnAn_cJSLQp4wYXauc3o-94" vertex="1">
          <mxGeometry x="338" y="70" width="60" height="30" as="geometry" />
        </mxCell>
        <mxCell id="XnAn_cJSLQp4wYXauc3o-136" style="edgeStyle=orthogonalEdgeStyle;rounded=0;orthogonalLoop=1;jettySize=auto;html=1;exitX=0;exitY=1;exitDx=0;exitDy=0;labelBackgroundColor=none;" parent="XnAn_cJSLQp4wYXauc3o-94" source="XnAn_cJSLQp4wYXauc3o-122" edge="1">
          <mxGeometry relative="1" as="geometry">
            <mxPoint x="319.8571428571429" y="159.85714285714283" as="targetPoint" />
          </mxGeometry>
        </mxCell>
        <mxCell id="XnAn_cJSLQp4wYXauc3o-122" value="&lt;div style=&quot;font-size: 15px;&quot;&gt;&lt;sub style=&quot;font-size: 15px;&quot;&gt;$$A^{2}_{2\leftarrow1}$$&lt;/sub&gt;&lt;/div&gt;" style="text;html=1;strokeColor=none;fillColor=none;align=center;verticalAlign=middle;whiteSpace=wrap;rounded=0;fontSize=15;rotation=0;" parent="XnAn_cJSLQp4wYXauc3o-94" vertex="1">
          <mxGeometry x="320" y="130" width="60" height="30" as="geometry" />
        </mxCell>
        <mxCell id="XnAn_cJSLQp4wYXauc3o-123" value="" style="ellipse;whiteSpace=wrap;html=1;aspect=fixed;labelBackgroundColor=none;" parent="XnAn_cJSLQp4wYXauc3o-94" vertex="1">
          <mxGeometry x="225" y="120" width="80" height="80" as="geometry" />
        </mxCell>
        <mxCell id="XnAn_cJSLQp4wYXauc3o-124" value="" style="endArrow=none;html=1;rounded=0;fontSize=15;exitX=0;exitY=1;exitDx=0;exitDy=0;entryX=1;entryY=0;entryDx=0;entryDy=0;labelBackgroundColor=none;" parent="XnAn_cJSLQp4wYXauc3o-94" source="XnAn_cJSLQp4wYXauc3o-123" target="XnAn_cJSLQp4wYXauc3o-123" edge="1">
          <mxGeometry width="50" height="50" relative="1" as="geometry">
            <mxPoint x="240" y="270" as="sourcePoint" />
            <mxPoint x="290" y="180" as="targetPoint" />
          </mxGeometry>
        </mxCell>
        <mxCell id="XnAn_cJSLQp4wYXauc3o-125" value="" style="endArrow=classic;html=1;rounded=0;exitX=-0.002;exitY=0.453;exitDx=0;exitDy=0;entryX=0.999;entryY=0.552;entryDx=0;entryDy=0;exitPerimeter=0;entryPerimeter=0;" parent="XnAn_cJSLQp4wYXauc3o-94" source="XnAn_cJSLQp4wYXauc3o-123" target="XnAn_cJSLQp4wYXauc3o-95" edge="1">
          <mxGeometry width="50" height="50" relative="1" as="geometry">
            <mxPoint x="217" y="131" as="sourcePoint" />
            <mxPoint x="87" y="41" as="targetPoint" />
          </mxGeometry>
        </mxCell>
        <mxCell id="XnAn_cJSLQp4wYXauc3o-126" value="" style="endArrow=classic;html=1;rounded=0;exitX=0;exitY=0.5;exitDx=0;exitDy=0;entryX=1;entryY=0.5;entryDx=0;entryDy=0;" parent="XnAn_cJSLQp4wYXauc3o-94" source="XnAn_cJSLQp4wYXauc3o-123" target="XnAn_cJSLQp4wYXauc3o-97" edge="1">
          <mxGeometry width="50" height="50" relative="1" as="geometry">
            <mxPoint x="187" y="131" as="sourcePoint" />
            <mxPoint x="137" y="181" as="targetPoint" />
          </mxGeometry>
        </mxCell>
        <mxCell id="XnAn_cJSLQp4wYXauc3o-127" value="" style="endArrow=classic;html=1;rounded=0;exitX=-0.002;exitY=0.545;exitDx=0;exitDy=0;entryX=1.002;entryY=0.454;entryDx=0;entryDy=0;exitPerimeter=0;entryPerimeter=0;" parent="XnAn_cJSLQp4wYXauc3o-94" source="XnAn_cJSLQp4wYXauc3o-123" target="XnAn_cJSLQp4wYXauc3o-96" edge="1">
          <mxGeometry width="50" height="50" relative="1" as="geometry">
            <mxPoint x="187" y="231" as="sourcePoint" />
            <mxPoint x="137" y="281" as="targetPoint" />
          </mxGeometry>
        </mxCell>
        <mxCell id="XnAn_cJSLQp4wYXauc3o-128" value="&lt;div style=&quot;font-size: 15px;&quot;&gt;&lt;sub style=&quot;font-size: 15px;&quot;&gt;$$A^{1}_{1\leftarrow3}$$&lt;/sub&gt;&lt;/div&gt;" style="text;html=1;strokeColor=none;fillColor=none;align=center;verticalAlign=middle;whiteSpace=wrap;rounded=0;fontSize=15;rotation=57;" parent="XnAn_cJSLQp4wYXauc3o-94" vertex="1">
          <mxGeometry x="180" y="210" width="60" height="30" as="geometry" />
        </mxCell>
        <mxCell id="XnAn_cJSLQp4wYXauc3o-129" value="&lt;div style=&quot;font-size: 15px;&quot;&gt;&lt;sub style=&quot;font-size: 15px;&quot;&gt;$$A^{1}_{2\leftarrow3}$$&lt;/sub&gt;&lt;/div&gt;" style="text;html=1;strokeColor=none;fillColor=none;align=center;verticalAlign=middle;whiteSpace=wrap;rounded=0;fontSize=15;rotation=39;" parent="XnAn_cJSLQp4wYXauc3o-94" vertex="1">
          <mxGeometry x="70.31" y="181.11" width="60" height="29" as="geometry" />
        </mxCell>
        <mxCell id="XnAn_cJSLQp4wYXauc3o-130" value="&lt;div style=&quot;font-size: 15px;&quot;&gt;&lt;sub style=&quot;font-size: 15px;&quot;&gt;$$A^{1}_{3\leftarrow2}$$&lt;/sub&gt;&lt;/div&gt;" style="text;html=1;strokeColor=none;fillColor=none;align=center;verticalAlign=middle;whiteSpace=wrap;rounded=0;fontSize=15;rotation=-37;" parent="XnAn_cJSLQp4wYXauc3o-94" vertex="1">
          <mxGeometry x="130.31" y="181.11" width="60" height="30" as="geometry" />
        </mxCell>
        <mxCell id="XnAn_cJSLQp4wYXauc3o-131" value="" style="endArrow=classic;html=1;rounded=0;entryX=1;entryY=0.5;entryDx=0;entryDy=0;exitX=0;exitY=0.5;exitDx=0;exitDy=0;" parent="XnAn_cJSLQp4wYXauc3o-94" source="XnAn_cJSLQp4wYXauc3o-117" target="XnAn_cJSLQp4wYXauc3o-123" edge="1">
          <mxGeometry width="50" height="50" relative="1" as="geometry">
            <mxPoint x="310" y="141" as="sourcePoint" />
            <mxPoint x="260" y="191" as="targetPoint" />
          </mxGeometry>
        </mxCell>
        <mxCell id="XnAn_cJSLQp4wYXauc3o-132" value="&lt;div style=&quot;font-size: 15px;&quot;&gt;&lt;sub style=&quot;font-size: 15px;&quot;&gt;$$A^{2}_{3\leftarrow1}$$&lt;/sub&gt;&lt;/div&gt;" style="text;html=1;strokeColor=none;fillColor=none;align=center;verticalAlign=middle;whiteSpace=wrap;rounded=0;fontSize=15;rotation=-46;" parent="XnAn_cJSLQp4wYXauc3o-94" vertex="1">
          <mxGeometry x="310" y="200" width="60" height="30" as="geometry" />
        </mxCell>
        <mxCell id="XnAn_cJSLQp4wYXauc3o-133" value="&lt;font style=&quot;font-size: 21px;&quot;&gt;$$=f(x)$$&lt;/font&gt;" style="text;html=1;strokeColor=none;fillColor=none;align=center;verticalAlign=middle;whiteSpace=wrap;rounded=0;fontSize=24;" parent="XnAn_cJSLQp4wYXauc3o-94" vertex="1">
          <mxGeometry x="420" y="190" width="60" height="70" as="geometry" />
        </mxCell>
        <mxCell id="XnAn_cJSLQp4wYXauc3o-140" value="&lt;div style=&quot;font-size: 15px;&quot;&gt;&lt;sub style=&quot;font-size: 15px;&quot;&gt;$$A^{0}_{1}$$&lt;/sub&gt;&lt;/div&gt;" style="text;html=1;strokeColor=none;fillColor=default;align=center;verticalAlign=middle;whiteSpace=wrap;rounded=0;fontSize=15;rotation=0;" parent="XnAn_cJSLQp4wYXauc3o-94" vertex="1">
          <mxGeometry x="10.310000000000002" y="25" width="60" height="30" as="geometry" />
        </mxCell>
        <mxCell id="XnAn_cJSLQp4wYXauc3o-141" value="&lt;div style=&quot;font-size: 15px;&quot;&gt;&lt;sub style=&quot;font-size: 15px;&quot;&gt;$$A^{0}_{2}$$&lt;/sub&gt;&lt;/div&gt;" style="text;html=1;strokeColor=none;fillColor=default;align=center;verticalAlign=middle;whiteSpace=wrap;rounded=0;fontSize=15;rotation=0;" parent="XnAn_cJSLQp4wYXauc3o-94" vertex="1">
          <mxGeometry x="10" y="145" width="60" height="30" as="geometry" />
        </mxCell>
        <mxCell id="XnAn_cJSLQp4wYXauc3o-143" value="&lt;div style=&quot;font-size: 15px;&quot;&gt;&lt;sub style=&quot;font-size: 15px;&quot;&gt;$$A^{0}_{3}$$&lt;/sub&gt;&lt;/div&gt;" style="text;html=1;strokeColor=none;fillColor=default;align=center;verticalAlign=middle;whiteSpace=wrap;rounded=0;fontSize=15;rotation=0;" parent="XnAn_cJSLQp4wYXauc3o-94" vertex="1">
          <mxGeometry x="10" y="265" width="60" height="30" as="geometry" />
        </mxCell>
        <mxCell id="XnAn_cJSLQp4wYXauc3o-144" value="&lt;div style=&quot;font-size: 15px;&quot;&gt;&lt;sub style=&quot;font-size: 15px;&quot;&gt;$$A^{1}_{3}$$&lt;/sub&gt;&lt;/div&gt;" style="text;html=1;strokeColor=none;fillColor=none;align=center;verticalAlign=middle;whiteSpace=wrap;rounded=0;fontSize=15;rotation=0;labelBackgroundColor=none;" parent="XnAn_cJSLQp4wYXauc3o-94" vertex="1">
          <mxGeometry x="245" y="280" width="60" height="30" as="geometry" />
        </mxCell>
        <mxCell id="XnAn_cJSLQp4wYXauc3o-145" value="&lt;div style=&quot;font-size: 15px;&quot;&gt;&lt;sub style=&quot;font-size: 15px;&quot;&gt;$$A^{1}_{2}$$&lt;/sub&gt;&lt;/div&gt;" style="text;html=1;strokeColor=none;fillColor=none;align=center;verticalAlign=middle;whiteSpace=wrap;rounded=0;fontSize=15;rotation=0;labelBackgroundColor=none;" parent="XnAn_cJSLQp4wYXauc3o-94" vertex="1">
          <mxGeometry x="245" y="160" width="60" height="30" as="geometry" />
        </mxCell>
        <mxCell id="XnAn_cJSLQp4wYXauc3o-146" value="&lt;div style=&quot;font-size: 15px;&quot;&gt;&lt;sub style=&quot;font-size: 15px;&quot;&gt;$$A^{1}_{1}$$&lt;/sub&gt;&lt;/div&gt;" style="text;html=1;strokeColor=none;fillColor=none;align=center;verticalAlign=middle;whiteSpace=wrap;rounded=0;fontSize=15;rotation=0;labelBackgroundColor=none;" parent="XnAn_cJSLQp4wYXauc3o-94" vertex="1">
          <mxGeometry x="245" y="41" width="60" height="30" as="geometry" />
        </mxCell>
        <mxCell id="XnAn_cJSLQp4wYXauc3o-147" value="&lt;div style=&quot;font-size: 15px;&quot;&gt;&lt;sub style=&quot;font-size: 15px;&quot;&gt;$$A^{2}_{1}$$&lt;/sub&gt;&lt;/div&gt;" style="text;html=1;strokeColor=none;fillColor=none;align=center;verticalAlign=middle;whiteSpace=wrap;rounded=0;fontSize=15;rotation=0;" parent="XnAn_cJSLQp4wYXauc3o-94" vertex="1">
          <mxGeometry x="430" y="160" width="60" height="30" as="geometry" />
        </mxCell>
      </root>
    </mxGraphModel>
  </diagram>
</mxfile>
